<svg id="Layer_1" data-name="Layer 1" xmlns="http://www.w3.org/2000/svg" viewBox="0 0 1790 1814.89"><defs><style>.cls-1{fill:#fff;}</style></defs><title>logo</title><path class="cls-1" d="M630.26,1063.31q27.75,28,27.75,83.33,0,56.67-29.58,85.56t-88.37,28.91h-40V1035.28H547.8Q602.52,1035.28,630.26,1063.31Zm270.8,25.13q0,27.66-16.24,41.48t-51.05,13.82h-45V1035.66h42.73q36.56,0,53.08,12.37T901.06,1088.44Zm231.83,81.6h-91.46l33.26-87.59a363.49,363.49,0,0,0,12.18-40.8q6.77,24.18,13.15,40.8Zm0,0h-91.46l33.26-87.59a363.49,363.49,0,0,0,12.18-40.8q6.77,24.18,13.15,40.8Zm-231.83-81.6q0,27.66-16.24,41.48t-51.05,13.82h-45V1035.66h42.73q36.56,0,53.08,12.37T901.06,1088.44Zm0,0q0,27.66-16.24,41.48t-51.05,13.82h-45V1035.66h42.73q36.56,0,53.08,12.37T901.06,1088.44Zm231.83,81.6h-91.46l33.26-87.59a363.49,363.49,0,0,0,12.18-40.8q6.77,24.18,13.15,40.8Zm0,0h-91.46l33.26-87.59a363.49,363.49,0,0,0,12.18-40.8q6.77,24.18,13.15,40.8Zm-231.83-81.6q0,27.66-16.24,41.48t-51.05,13.82h-45V1035.66h42.73q36.56,0,53.08,12.37T901.06,1088.44ZM2145,960.39v374.45H359.37V960.39ZM692.82,1145.49q0-65.55-36.55-102.09T553.8,1006.85H467.17v282.68h78.31q71.35,0,109.34-37T692.82,1145.49Zm262.18,144-76.76-127q56.85-19.73,56.85-75.8,0-40-24.85-59.94t-76.86-19.91H755.85v282.68h32.87V1172h59l68.44,117.55Zm257.35,0-111.18-283.84h-27.64L961.77,1289.53H995l34.8-89.91h113.3l35.2,89.91Zm361.19-282.68h-34.8l-44.47,174.21q-10.26,39.45-13.92,66.9a529.32,529.32,0,0,0-15.66-67.67l-53.18-173.44h-34.8L1326,1178.74a480.57,480.57,0,0,0-15.46,69.22,647.1,647.1,0,0,0-13.54-66.51l-44.66-174.6h-34.8l75.21,282.68h32.48l55.31-188.13a442.11,442.11,0,0,0,13.53-55.88q.18,3.87,5.22,23t9.08,31.71l57,189.29h32.48Zm201.86,0H1617.82v282.68H1775.4v-29.38H1650.69v-104h117.17v-29H1650.69v-91.06H1775.4Zm261.81,282.68-76.77-127q56.85-19.73,56.85-75.8,0-40-24.85-59.94t-76.86-19.91h-77.53v282.68h32.87V1172h59l68.45,117.55ZM1967,1129.92q-16.24,13.82-51,13.82h-45V1035.66h42.73q36.54,0,53.08,12.37t16.53,40.41Q1983.26,1116.1,1967,1129.92Zm-867-47.47,32.87,87.59h-91.46l33.26-87.59a363.49,363.49,0,0,0,12.18-40.8Q1093.64,1065.83,1100,1082.45Zm-215.2,47.47q-16.25,13.82-51.05,13.82h-45V1035.66h42.73q36.56,0,53.08,12.37t16.53,40.41Q901.06,1116.1,884.82,1129.92Zm16.24-41.48q0,27.66-16.24,41.48t-51.05,13.82h-45V1035.66h42.73q36.56,0,53.08,12.37T901.06,1088.44Zm231.83,81.6h-91.46l33.26-87.59a363.49,363.49,0,0,0,12.18-40.8q6.77,24.18,13.15,40.8Zm0,0h-91.46l33.26-87.59a363.49,363.49,0,0,0,12.18-40.8q6.77,24.18,13.15,40.8Zm-231.83-81.6q0,27.66-16.24,41.48t-51.05,13.82h-45V1035.66h42.73q36.56,0,53.08,12.37T901.06,1088.44Zm0,0q0,27.66-16.24,41.48t-51.05,13.82h-45V1035.66h42.73q36.56,0,53.08,12.37T901.06,1088.44Zm0,0q0,27.66-16.24,41.48t-51.05,13.82h-45V1035.66h42.73q36.56,0,53.08,12.37T901.06,1088.44ZM2145,1371.58V1746H359.37V1371.58Zm-693.1,143h-42.52v36.3H1095v-36.3h-42.52V1603H1451.9Zm688.73,268.15v374.45H355V1782.77Zm-693.11,143H1405v36.29H1090.62v-36.29H1048.1v88.36h399.42Zm-1088.15-995H583c211.85,0,335.43-126.1,335.43-295.92v-1.68c0-169.82-121.9-290.88-332.07-290.88h-227Zm163.1-144.6V486.93h66.41c97.52,0,162.26,54.64,162.26,148.8v1.68c0,95-64.74,148.8-162.26,148.8Zm480,144.6H1480V792.1h-316.1V698.78h282.47V570.16H1163.92V481h311.89V342.33h-473.3ZM1754.92,935h151.32L2145,342.33H1965.93L1832.26,714.76,1698.59,342.33H1516.16Z" transform="translate(-355 -342.33)"/></svg>